<svg width="34" height="21" viewBox="0 0 34 21" fill="none" xmlns="http://www.w3.org/2000/svg">
<path d="M7.56934 20.2769C6.1543 20.2769 4.8667 20.1187 3.70654 19.8022C2.54639 19.4858 1.40381 18.9365 0.278809 18.1543V13.5137H3.2583L3.66699 16.2427C4.0625 16.5767 4.60742 16.8491 5.30176 17.0601C5.99609 17.2622 6.75195 17.3633 7.56934 17.3633C8.27246 17.3633 8.86133 17.2666 9.33594 17.0732C10.3115 16.6777 10.7993 15.9834 10.7993 14.9902C10.7993 14.5244 10.6895 14.1157 10.4697 13.7642C10.0391 13.0786 8.97119 12.4722 7.26611 11.9448C5.71045 11.4878 4.45361 10.9956 3.49561 10.4683C2.49365 9.94092 1.74219 9.30811 1.24121 8.56982C0.749023 7.82275 0.50293 6.92627 0.50293 5.88037C0.50293 4.84326 0.792969 3.9248 1.37305 3.125C1.94434 2.33398 2.73975 1.70996 3.75928 1.25293C4.77881 0.795898 5.95654 0.558594 7.29248 0.541016C8.76904 0.523438 10.0742 0.699219 11.208 1.06836C12.3506 1.4375 13.335 1.95166 14.1611 2.61084V6.93506H11.2739L10.7729 4.29834C10.439 4.0874 9.98633 3.90283 9.41504 3.74463C8.85254 3.58643 8.21094 3.50732 7.49023 3.50732C6.875 3.50732 6.33447 3.59961 5.86865 3.78418C5.39404 3.96875 5.02051 4.23682 4.74805 4.58838C4.47559 4.93994 4.33936 5.36621 4.33936 5.86719C4.33936 6.29785 4.45801 6.67139 4.69531 6.98779C5.13477 7.58545 6.30371 8.19629 8.20215 8.82031C10.3203 9.40918 11.9243 10.187 13.0142 11.1538C14.1128 12.1206 14.6621 13.3906 14.6621 14.9639C14.6621 16.0625 14.3677 17.0029 13.7788 17.7852C13.1899 18.585 12.3638 19.2002 11.3003 19.6309C10.2368 20.0615 8.99316 20.2769 7.56934 20.2769ZM29.1377 11.668L31.5767 17.3105L33.2114 17.6929V20H28.5444L25.5913 12.4194H22.0845V17.2974L24.1411 17.6929V20H16.1914V17.6929L18.2349 17.2974V3.52051L16.1914 3.125V0.804688H25.2881C26.7734 0.804688 28.0391 1.0332 29.085 1.49023C30.1396 1.94727 30.9482 2.60205 31.5107 3.45459C32.082 4.30713 32.3677 5.33105 32.3677 6.52637C32.3677 7.66016 32.0864 8.6665 31.5239 9.54541C30.9614 10.4419 30.166 11.1494 29.1377 11.668ZM22.0845 3.771V9.45312H25.2222C27.4282 9.45312 28.5312 8.53467 28.5312 6.69775C28.5312 5.81006 28.2588 5.10254 27.7139 4.5752C27.1689 4.03906 26.3604 3.771 25.2881 3.771H22.0845Z" fill="black"/>
</svg>
